<?xml version="1.0" standalone="no"?>
<!DOCTYPE svg PUBLIC "-//W3C//DTD SVG 20010904//EN"
 "http://www.w3.org/TR/2001/REC-SVG-20010904/DTD/svg10.dtd">
<svg version="1.0" xmlns="http://www.w3.org/2000/svg"
 width="384.000000pt" height="384.000000pt" viewBox="0 0 384.000000 384.000000"
 preserveAspectRatio="xMidYMid meet">
<metadata>
Created by potrace 1.14, written by Peter Selinger 2001-2017
</metadata>
<g transform="translate(0.000000,384.000000) scale(0.100000,-0.100000)"
fill="#000000" stroke="none">
<path d="M1018 2949 c-2 -6 -27 -14 -56 -17 -29 -2 -52 -8 -52 -13 0 -5 -7 -9
-15 -9 -9 0 -18 -7 -21 -15 -4 -8 -17 -15 -30 -15 -15 0 -24 -6 -24 -15 0 -8
-7 -15 -15 -15 -8 0 -15 -7 -15 -15 0 -8 -7 -15 -15 -15 -8 0 -15 -7 -15 -15
0 -8 -4 -15 -10 -15 -5 0 -13 -18 -16 -40 -4 -22 -10 -40 -15 -40 -5 0 -9 -20
-9 -45 0 -25 5 -45 10 -45 6 0 10 -13 10 -30 0 -20 5 -30 15 -30 8 0 15 -6 15
-14 0 -19 57 -76 76 -76 8 0 14 -4 14 -9 0 -5 11 -12 25 -15 14 -4 25 -11 25
-16 0 -6 14 -10 30 -10 20 0 30 -5 30 -15 0 -11 11 -15 41 -15 23 0 47 -7 55
-15 9 -9 34 -15 60 -15 24 0 44 -4 44 -9 0 -6 32 -13 70 -17 39 -3 70 -10 70
-14 0 -5 14 -11 30 -15 17 -4 30 -11 30 -16 0 -5 7 -9 15 -9 11 0 15 -11 15
-40 0 -29 4 -40 15 -40 8 0 15 5 15 10 0 6 7 10 15 10 8 0 15 6 15 14 0 8 11
17 25 20 14 4 25 11 25 16 0 6 7 10 15 10 8 0 15 7 15 15 0 8 5 15 11 15 7 0
22 11 34 24 12 13 32 27 43 31 12 3 22 11 22 16 0 5 7 9 15 9 8 0 15 7 15 15
0 8 7 15 15 15 8 0 15 7 15 15 0 8 -7 15 -15 15 -8 0 -15 4 -15 10 0 19 -35
50 -57 50 -14 0 -23 6 -23 15 0 8 -7 15 -15 15 -8 0 -15 4 -15 9 0 5 -25 12
-55 16 -30 3 -55 10 -55 14 0 5 -26 11 -57 13 -31 3 -59 10 -61 16 -2 8 -30
12 -73 12 -55 0 -69 3 -69 15 0 10 -11 15 -35 15 -22 0 -43 8 -55 20 -24 24
-27 60 -5 60 8 0 15 7 15 15 0 12 16 15 85 15 69 0 85 -3 85 -15 0 -9 9 -15
25 -15 16 0 25 -6 25 -15 0 -8 7 -15 15 -15 10 0 15 -10 15 -30 0 -20 5 -30
15 -30 8 0 15 -4 15 -10 0 -5 7 -10 15 -10 8 0 15 5 15 10 0 6 51 10 133 10
171 0 177 2 177 50 0 24 -5 40 -15 44 -8 3 -15 15 -15 27 0 12 -11 32 -25 45
-14 13 -25 28 -25 34 0 5 -7 10 -15 10 -8 0 -15 7 -15 15 0 8 -7 15 -15 15 -8
0 -15 4 -15 9 0 5 -13 12 -30 16 -16 4 -30 11 -30 16 0 5 -18 9 -40 9 -27 0
-43 5 -46 15 -5 13 -38 15 -214 15 -146 0 -209 -3 -212 -11z"/>
<path d="M1870 2861 c0 -11 -6 -22 -12 -24 -10 -4 -10 -7 -1 -14 9 -6 13 -56
15 -163 l3 -155 40 4 c22 1 42 7 45 11 3 5 29 12 58 16 28 3 52 10 52 14 0 4
26 10 57 12 31 3 59 10 61 16 2 7 26 12 58 12 41 0 54 4 54 15 0 9 9 15 25 15
23 0 25 4 25 45 0 25 -4 45 -10 45 -5 0 -10 18 -10 39 0 22 -6 46 -14 54 -8 8
-16 27 -18 43 l-3 29 -212 3 c-205 2 -213 2 -213 -17z"/>
<path d="M2568 2873 c-13 -3 -18 -15 -18 -43 0 -21 -5 -40 -12 -42 -7 -3 -14
-32 -16 -71 l-4 -67 31 0 c17 0 31 4 31 10 0 5 27 12 60 16 33 4 60 10 60 14
0 4 25 11 55 15 30 3 55 11 55 16 0 5 20 9 44 9 26 0 51 6 60 15 8 8 26 15 40
15 22 0 26 4 26 30 0 17 5 30 10 30 16 0 11 47 -6 54 -18 7 -390 6 -416 -1z"/>
<path d="M2530 2581 c0 -5 -16 -12 -35 -15 -29 -6 -35 -11 -35 -31 0 -14 -4
-25 -9 -25 -6 0 -11 -19 -13 -42 -4 -60 -22 -54 -26 9 -2 42 -7 53 -23 58 -25
8 -89 -2 -89 -14 0 -5 -19 -11 -42 -14 -24 -3 -44 -11 -46 -16 -2 -6 -17 -11
-33 -11 -28 0 -29 -2 -29 -44 0 -26 6 -51 15 -60 8 -8 15 -28 15 -45 0 -16 7
-36 15 -45 8 -8 15 -32 15 -55 0 -30 4 -41 15 -41 12 0 15 -13 15 -55 0 -42 3
-55 15 -55 11 0 15 -11 15 -40 0 -22 4 -40 9 -40 5 0 12 -13 16 -30 l7 -30
124 0 c124 0 124 0 130 25 3 14 10 25 14 25 4 0 10 19 13 42 3 24 11 44 16 46
6 2 11 21 11 42 0 24 5 40 15 44 10 3 15 19 15 46 0 29 4 40 15 40 11 0 15 12
15 45 0 33 4 45 15 45 11 0 15 12 15 50 0 28 5 50 10 50 6 0 10 -90 10 -250
l0 -250 126 0 c95 0 129 3 140 14 11 12 14 69 14 325 l0 311 -235 0 c-130 0
-235 -4 -235 -9z"/>
<path d="M2070 2435 c0 -9 -10 -15 -26 -15 -14 0 -32 -7 -40 -15 -9 -8 -24
-15 -35 -15 -10 0 -19 -4 -19 -10 0 -5 -11 -12 -25 -16 -14 -3 -25 -10 -25
-15 0 -5 -7 -9 -15 -9 -13 0 -15 -26 -15 -170 0 -107 -4 -170 -10 -170 -5 0
-10 -7 -10 -15 0 -8 5 -15 10 -15 6 0 10 -7 10 -15 0 -13 21 -15 130 -15 l130
0 0 255 0 255 -30 0 c-20 0 -30 -5 -30 -15z"/>
<path d="M680 2250 c0 -47 3 -60 15 -60 9 0 15 -9 15 -25 0 -14 5 -25 10 -25
6 0 10 -7 10 -15 0 -9 7 -18 15 -21 8 -3 17 -14 20 -25 4 -10 17 -22 31 -25
13 -3 24 -12 24 -20 0 -8 7 -14 15 -14 8 0 15 -7 15 -15 0 -10 10 -15 29 -15
16 0 31 -5 33 -10 5 -15 211 -15 216 -1 2 6 10 11 18 11 8 0 17 7 20 15 3 8
16 17 27 21 12 4 32 17 44 30 12 13 27 24 33 24 5 0 10 7 10 15 0 9 9 15 25
15 28 0 34 15 9 24 -9 3 -44 6 -79 6 -47 0 -64 4 -69 15 -3 8 -17 15 -31 15
-16 0 -25 6 -25 15 0 8 -7 15 -15 15 -9 0 -15 9 -15 25 0 16 -6 25 -15 25 -10
0 -15 10 -15 30 l0 30 -185 0 -185 0 0 -60z"/>
<path d="M1700 2235 c0 -9 -9 -15 -24 -15 -13 0 -26 -7 -30 -15 -3 -8 -12 -15
-21 -15 -8 0 -15 -4 -15 -10 0 -5 -6 -10 -14 -10 -8 0 -21 -6 -28 -14 -8 -7
-24 -17 -36 -20 -12 -4 -22 -12 -22 -17 0 -5 -7 -9 -15 -9 -8 0 -15 -7 -15
-15 0 -8 -9 -15 -20 -15 -11 0 -20 -4 -20 -10 0 -5 -11 -12 -25 -16 -14 -3
-25 -12 -25 -20 0 -8 -5 -14 -11 -14 -7 0 -22 -11 -35 -25 -13 -14 -28 -25
-34 -25 -5 0 -10 -7 -10 -15 0 -12 18 -15 100 -15 55 0 100 4 100 9 0 4 19 11
41 14 23 3 45 10 48 15 3 5 16 12 29 16 12 4 22 12 22 17 0 5 7 9 15 9 8 0 15
7 15 15 0 8 7 15 15 15 8 0 15 7 15 15 0 8 7 15 15 15 11 0 15 11 15 40 0 29
4 40 15 40 11 0 15 12 15 45 0 43 -1 45 -30 45 -20 0 -30 -5 -30 -15z"/>
<path d="M1340 2150 c0 -5 5 -10 10 -10 6 0 10 5 10 10 0 6 -4 10 -10 10 -5 0
-10 -4 -10 -10z"/>
<path d="M2668 1771 c-15 -15 -18 -38 -18 -154 l0 -137 -70 0 c-56 0 -70 -3
-70 -15 0 -8 -7 -15 -15 -15 -11 0 -15 -11 -15 -38 0 -55 25 -72 105 -72 l65
0 0 -139 c0 -77 3 -146 6 -155 8 -22 129 -23 150 -2 22 22 21 726 -1 726 -8 0
-15 5 -15 10 0 6 -7 10 -15 10 -8 0 -15 -4 -15 -10 0 -5 -11 -10 -25 -10 -14
0 -25 5 -25 10 0 16 -23 11 -42 -9z"/>
<path d="M3620 1780 c0 -5 -7 -10 -15 -10 -12 0 -15 -16 -15 -85 l0 -85 -85 0
-85 0 0 -60 0 -60 85 0 85 0 0 -100 0 -100 85 0 85 0 0 245 c0 211 -2 245 -15
245 -8 0 -15 5 -15 10 0 6 -7 10 -15 10 -8 0 -15 -4 -15 -10 0 -5 -11 -10 -25
-10 -14 0 -25 5 -25 10 0 6 -7 10 -15 10 -8 0 -15 -4 -15 -10z"/>
<path d="M3190 1755 c0 -8 -7 -15 -15 -15 -12 0 -15 -15 -15 -75 0 -43 -4 -75
-10 -75 -5 0 -13 -18 -16 -40 -4 -24 -12 -40 -20 -40 -8 0 -14 -5 -14 -11 0
-14 -55 -69 -69 -69 -6 0 -11 -7 -11 -15 0 -9 -9 -15 -25 -15 -14 0 -28 -7
-31 -15 -4 -8 -17 -15 -30 -15 -20 0 -24 -5 -24 -30 0 -25 4 -30 25 -30 16 0
25 -6 25 -15 0 -8 7 -15 15 -15 8 0 15 -7 15 -15 0 -10 10 -15 30 -15 20 0 30
5 30 15 0 8 7 15 15 15 8 0 15 7 15 15 0 10 10 15 30 15 20 0 30 5 30 15 0 8
5 15 11 15 14 0 69 55 69 69 0 6 14 11 30 11 17 0 30 -5 30 -11 0 -14 25 -39
39 -39 6 0 11 -7 11 -15 0 -8 9 -15 19 -15 11 0 26 -7 35 -15 8 -8 17 -15 21
-15 4 0 13 -7 21 -15 22 -21 66 -19 87 5 9 11 17 25 17 30 0 6 7 10 15 10 10
0 15 10 15 30 0 25 -4 30 -25 30 -14 0 -25 4 -25 9 0 5 -12 12 -26 15 -14 4
-36 18 -48 31 -13 14 -28 25 -35 25 -6 0 -11 7 -11 15 0 8 -7 15 -15 15 -8 0
-15 7 -15 15 0 8 -4 15 -10 15 -5 0 -10 7 -10 15 0 8 -7 15 -15 15 -17 0 -21
46 -4 52 6 2 11 32 12 66 2 75 -5 82 -85 82 -45 0 -58 -3 -58 -15z"/>
<path d="M354 1726 c-4 -11 -18 -16 -45 -16 -28 0 -39 -4 -39 -15 0 -10 -10
-15 -30 -15 -20 0 -30 -5 -30 -15 0 -8 -7 -15 -15 -15 -8 0 -15 -5 -15 -11 0
-6 -7 -17 -15 -25 -11 -12 -15 -39 -15 -104 0 -65 4 -92 15 -104 8 -8 15 -18
15 -23 0 -11 37 -43 50 -43 6 0 10 -7 10 -15 0 -8 5 -15 11 -15 6 0 17 -7 25
-15 9 -8 24 -15 35 -15 10 0 19 -7 19 -15 0 -11 11 -15 40 -15 29 0 40 -4 40
-15 0 -8 9 -15 20 -15 23 0 70 -45 70 -66 0 -8 5 -14 10 -14 6 0 10 -18 10
-40 0 -22 -4 -40 -10 -40 -5 0 -10 -7 -10 -15 0 -10 -10 -15 -30 -15 -20 0
-30 -5 -30 -15 0 -21 -105 -21 -114 0 -3 10 -19 15 -46 15 -22 0 -40 5 -40 11
0 21 -58 69 -84 69 -26 0 -26 -1 -26 -80 0 -77 1 -80 25 -86 14 -3 25 -12 25
-20 0 -8 7 -14 16 -14 8 0 22 -7 30 -15 10 -10 35 -15 75 -15 33 0 59 -4 59
-10 0 -5 11 -10 25 -10 14 0 25 5 25 10 0 6 26 10 59 10 40 0 65 5 75 15 8 8
22 15 30 15 9 0 16 7 16 15 0 9 9 15 25 15 21 0 25 5 25 30 0 20 5 30 15 30
10 0 15 10 15 30 0 17 5 30 10 30 6 0 10 25 10 55 0 30 -4 55 -10 55 -5 0 -10
14 -10 30 0 20 -5 30 -15 30 -9 0 -15 9 -15 25 0 16 -6 25 -15 25 -8 0 -15 7
-15 15 0 9 -9 15 -25 15 -16 0 -25 6 -25 15 0 8 -7 15 -16 15 -8 0 -22 7 -30
15 -9 8 -29 15 -45 15 -19 0 -29 5 -29 15 0 9 -9 15 -25 15 -14 0 -25 4 -25 9
0 5 -13 12 -29 16 -20 4 -31 14 -35 31 -4 13 -11 24 -16 24 -6 0 -10 14 -10
30 0 20 5 30 15 30 8 0 15 5 15 11 0 27 30 39 99 39 40 0 71 -4 71 -10 0 -5
11 -12 25 -16 14 -3 25 -10 25 -15 0 -5 7 -9 15 -9 8 0 15 -7 15 -15 0 -10 10
-15 30 -15 l30 0 0 85 0 85 -30 0 c-20 0 -30 5 -30 15 0 11 -11 15 -39 15 -22
0 -41 5 -43 12 -3 7 -32 14 -71 16 -55 4 -68 1 -73 -12z"/>
<path d="M2288 1733 c-121 -2 -198 -7 -198 -13 0 -6 -7 -10 -15 -10 -12 0 -15
-13 -15 -60 l0 -60 155 0 c131 0 155 -2 155 -15 0 -8 -7 -15 -15 -15 -11 0
-15 -11 -15 -40 0 -29 -4 -40 -15 -40 -8 0 -15 -9 -15 -20 0 -28 -107 -131
-152 -146 -10 -4 -18 -10 -18 -14 0 -5 -13 -11 -30 -15 -16 -4 -30 -11 -30
-16 0 -5 -11 -9 -24 -9 -66 0 -73 -32 -21 -85 29 -28 43 -35 75 -35 22 0 40 4
40 10 0 5 11 12 25 16 14 3 25 10 25 14 0 5 14 11 30 15 17 4 30 11 30 16 0 5
7 9 15 9 8 0 15 7 15 15 0 9 9 15 25 15 16 0 25 6 25 15 0 8 7 15 15 15 8 0
15 7 15 15 0 8 7 15 15 15 8 0 15 7 15 15 0 8 4 15 10 15 5 0 12 11 16 24 3
14 12 27 20 30 8 3 14 17 14 31 0 14 4 25 9 25 5 0 12 14 16 30 4 17 11 30 16
30 5 0 9 18 9 40 0 27 5 43 15 46 11 5 15 22 15 69 0 57 -2 63 -22 69 -13 3
-25 5 -28 4 -3 -2 -94 -4 -202 -5z"/>
<path d="M666 1688 c-13 -49 -7 -90 14 -95 11 -3 20 -9 20 -14 0 -5 7 -9 15
-9 8 0 15 5 15 10 0 6 38 10 95 10 l95 0 0 -355 0 -355 75 0 75 0 0 341 c0
282 2 343 14 355 17 17 206 21 206 4 0 -15 17 -12 40 7 11 10 20 28 20 40 0
13 5 23 10 23 6 0 10 -11 10 -25 0 -14 7 -28 15 -31 8 -4 15 -17 15 -30 0 -14
6 -24 14 -24 8 0 17 -13 21 -30 4 -16 11 -30 16 -30 5 0 9 -7 9 -15 0 -8 7
-15 15 -15 9 0 15 -9 15 -24 0 -13 7 -26 15 -30 8 -3 15 -12 15 -21 0 -8 5
-15 10 -15 6 0 10 -6 10 -14 0 -8 8 -22 17 -31 16 -16 16 -18 0 -27 -9 -5 -17
-16 -17 -23 0 -8 -4 -15 -10 -15 -5 0 -10 -11 -10 -25 0 -16 -6 -25 -15 -25
-8 0 -15 -6 -15 -14 0 -8 -7 -16 -15 -20 -8 -3 -15 -17 -15 -31 0 -16 -6 -25
-15 -25 -8 0 -15 -9 -15 -20 0 -12 -11 -31 -24 -43 -14 -13 -28 -35 -31 -50
-4 -15 -11 -27 -16 -27 -5 0 -9 -7 -9 -15 0 -8 -7 -15 -15 -15 -10 0 -15 -10
-15 -30 l0 -30 85 0 85 0 0 30 c0 20 5 30 15 30 8 0 15 5 15 11 0 6 7 17 15
25 8 9 15 24 15 35 0 10 7 19 15 19 8 0 15 9 15 20 0 12 11 31 25 44 14 14 25
34 25 50 0 16 5 26 15 26 8 0 15 -7 15 -15 0 -8 4 -15 9 -15 5 0 12 -13 16
-30 4 -16 11 -30 16 -30 5 0 11 -11 15 -25 3 -14 10 -25 14 -25 5 0 11 -14 15
-30 4 -16 11 -30 16 -30 5 0 9 -7 9 -15 0 -8 6 -15 14 -15 9 0 16 -12 18 -27
l3 -28 85 0 c84 0 85 0 82 25 -1 13 -6 27 -11 30 -5 3 -11 15 -15 28 -4 12
-12 22 -17 22 -5 0 -9 7 -9 15 0 9 -7 18 -15 21 -8 4 -15 17 -15 30 0 15 -6
24 -15 24 -8 0 -15 9 -15 20 0 11 -7 20 -15 20 -9 0 -15 9 -15 25 0 14 -4 25
-10 25 -5 0 -12 11 -16 25 -3 14 -10 25 -15 25 -5 0 -9 7 -9 15 0 7 -7 18 -17
23 -18 11 -23 70 -6 80 6 4 13 17 17 30 4 12 11 22 16 22 5 0 11 14 15 30 4
17 11 30 16 30 5 0 9 7 9 15 0 8 7 15 15 15 10 0 15 10 15 30 0 20 5 30 15 30
8 0 15 7 15 15 0 8 4 15 10 15 5 0 12 11 16 24 3 14 12 27 20 30 8 3 14 17 14
31 0 14 5 25 10 25 6 0 10 7 10 15 0 12 -16 15 -85 15 -69 0 -85 -3 -85 -15 0
-8 -4 -15 -9 -15 -5 0 -12 -13 -16 -30 -4 -16 -13 -30 -21 -30 -8 0 -14 -10
-14 -25 0 -14 -4 -25 -9 -25 -5 0 -12 -13 -16 -30 -4 -16 -11 -30 -16 -30 -5
0 -9 -7 -9 -15 0 -8 -7 -15 -15 -15 -9 0 -15 -9 -15 -25 0 -16 -6 -25 -15 -25
-9 0 -15 9 -15 25 0 14 -4 25 -9 25 -5 0 -12 14 -16 30 -4 17 -10 30 -15 30
-4 0 -11 11 -14 25 -4 14 -11 25 -16 25 -6 0 -10 7 -10 15 0 8 -7 15 -15 15
-10 0 -15 10 -15 30 0 20 -5 30 -15 30 -8 0 -15 7 -15 15 0 13 -52 15 -409 15
l-409 0 -6 -22z"/>
<path d="M3105 1216 c-4 -24 -4 -58 0 -75 l7 -31 239 0 c153 0 239 -4 239 -10
0 -6 -86 -10 -239 -10 l-239 0 -6 -22 c-3 -13 -6 -78 -6 -145 l0 -123 330 0
330 0 0 60 0 60 -255 0 -255 0 0 25 0 25 255 0 255 0 0 125 c0 104 -3 128 -17
145 -17 19 -29 20 -325 20 l-307 0 -6 -44z"/>
<path d="M2188 1113 c-16 -4 -18 -20 -18 -159 l0 -154 330 0 330 0 0 54 c0 92
19 86 -249 86 -130 0 -241 4 -248 8 -7 5 -13 39 -15 87 l-3 80 -55 2 c-30 0
-63 -1 -72 -4z"/>
</g>
</svg>
